# 3ds Max Wavefront OBJ Exporter v0.97b - (c)2007 guruware
# File Created: 07.05.2020 17:42:50

mtllib boteBasura.mtl

#
# object group_0
#

v  -2.8066 0.3073 -0.3868
v  -1.2149 0.3073 1.4888
v  -1.4693 0.3073 1.9295
v  -2.2977 0.3073 -0.3868
v  -1.4693 0.3073 -2.7031
v  -1.2149 0.3073 -2.2624
v  0.9508 0.3073 -2.2624
v  1.2053 0.3073 -2.7031
v  1.2053 0.3073 1.9295
v  0.9508 0.3073 1.4888
v  2.5426 0.3073 -0.3868
v  2.0337 0.3073 -0.3868
# 12 vertices

vn 0.0000 -1.0000 -0.0000
vn 0.0000 1.0000 -0.0000
# 2 vertex normals

vt -3.1215 1.3516 0.0000
vt -2.8245 1.3516 0.0000
vt -2.3411 0.0000 0.0000
vt -2.1926 0.2572 0.0000
vt -0.9289 0.2572 0.0000
vt -0.7804 0.0000 0.0000
vt -0.2970 1.3516 0.0000
vt 0.0000 1.3516 0.0000
vt -2.3411 2.7033 0.0000
vt -2.1926 2.4461 0.0000
vt -0.9289 2.4461 0.0000
vt -0.7804 2.7033 0.0000
# 12 texture coords

o group_0
g group_0
usemtl wire_160160160
s off
f 1/1/1 2/2/1 3/3/1 
f 2/2/1 1/4/1 4/3/1 
f 4/4/1 1/5/1 5/3/1 
f 4/3/1 5/5/1 6/6/1 
f 6/5/1 5/7/1 7/6/1 
f 7/8/1 5/6/1 8/7/1 
f 2/1/1 9/9/1 3/2/1 
f 9/2/1 2/9/1 10/10/1 
f 9/10/1 10/9/1 11/11/1 
f 11/9/1 10/12/1 12/11/1 
f 11/11/1 12/12/1 7/7/1 
f 11/8/1 7/7/1 8/12/1 
f 8/1/2 7/1/2 11/1/2 
f 7/1/2 12/1/2 11/1/2 
f 12/1/2 10/1/2 11/1/2 
f 11/1/2 10/1/2 9/1/2 
f 10/1/2 2/1/2 9/1/2 
f 3/1/2 9/1/2 2/1/2 
f 8/1/2 5/1/2 7/1/2 
f 7/1/2 5/1/2 6/1/2 
f 6/1/2 5/1/2 4/1/2 
f 5/1/2 1/1/2 4/1/2 
f 4/1/2 1/1/2 2/1/2 
f 3/1/2 2/1/2 1/1/2 
# 24 faces

#
# object ID23
#

v  0.9508 6.9095 -2.2624
v  2.0337 0.8615 -0.3868
v  2.0337 6.9095 -0.3868
v  0.9508 0.8615 -2.2624
v  0.9508 6.9095 1.4888
v  0.9508 0.8615 1.4888
v  0.9508 7.3432 -2.2624
v  2.0337 7.3432 -0.3868
v  0.8532 6.4349 -2.2624
v  -1.2149 6.9095 -2.2624
v  -1.1468 6.4349 -2.2624
v  -1.1468 5.5433 -2.2624
v  0.8532 5.5433 -2.2624
v  -1.2149 0.8615 -2.2624
v  -2.2977 0.8615 -0.3868
v  -1.2149 0.8615 1.4888
v  0.8532 5.5433 1.4888
v  0.8532 6.4349 1.4888
v  -1.1468 5.5433 1.4888
v  -1.1468 6.4349 1.4888
v  -1.2149 6.9095 1.4888
v  0.9508 7.3432 1.4888
v  -1.2149 7.3432 -2.2624
v  -2.2977 6.6685 -0.3868
v  -2.2977 6.9095 -0.3868
v  -1.2149 7.3432 1.4888
v  -2.2977 7.3432 -0.3868
# 27 vertices

vn -0.8660 0.0000 0.5000
vn 0.8660 0.0000 -0.5000
vn -0.8660 0.0000 -0.5000
vn 0.8660 0.0000 0.5000
vn 0.0000 0.0000 1.0000
vn -0.0000 0.0000 -1.0000
vn 0.0000 1.0000 -0.0000
vn 0.0000 -1.0000 -0.0000
# 8 vertex normals

o ID23
g ID23
usemtl Material__27
s off
f 13//3 14//3 15//3 
f 14//3 13//3 16//3 
f 16//4 13//4 14//4 
f 15//4 14//4 13//4 
f 17//5 14//5 18//5 
f 14//5 17//5 15//5 
f 15//6 17//6 14//6 
f 18//6 14//6 17//6 
f 19//3 15//3 20//3 
f 15//3 19//3 13//3 
f 13//4 19//4 15//4 
f 20//4 15//4 19//4 
f 13//7 21//7 16//7 
f 21//7 13//7 22//7 
f 21//7 22//7 23//7 
f 23//7 22//7 24//7 
f 16//7 25//7 26//7 
f 25//7 16//7 21//7 
f 26//7 25//7 24//7 
f 26//7 24//7 22//7 
f 22//8 24//8 26//8 
f 24//8 25//8 26//8 
f 21//8 16//8 25//8 
f 26//8 25//8 16//8 
f 24//8 22//8 23//8 
f 23//8 22//8 21//8 
f 22//8 13//8 21//8 
f 16//8 21//8 13//8 
f 18//9 27//9 28//9 
f 27//9 18//9 14//9 
f 27//9 14//9 26//9 
f 26//9 14//9 16//9 
f 16//10 14//10 26//10 
f 26//10 14//10 27//10 
f 14//10 18//10 27//10 
f 28//10 27//10 18//10 
f 18//8 29//8 17//8 
f 29//8 18//8 28//8 
f 17//8 29//8 30//8 
f 29//8 28//8 31//8 
f 31//8 28//8 32//8 
f 30//8 33//8 17//8 
f 33//8 30//8 32//8 
f 33//8 32//8 28//8 
f 28//7 32//7 33//7 
f 32//7 30//7 33//7 
f 17//7 33//7 30//7 
f 32//7 28//7 31//7 
f 31//7 28//7 29//7 
f 30//7 29//7 17//7 
f 28//7 18//7 29//7 
f 17//7 29//7 18//7 
f 34//5 15//5 17//5 
f 15//5 34//5 20//5 
f 20//6 34//6 15//6 
f 17//6 15//6 34//6 
f 35//7 13//7 19//7 
f 13//7 35//7 22//7 
f 22//8 35//8 13//8 
f 19//8 13//8 35//8 
f 22//6 27//6 26//6 
f 27//6 22//6 36//6 
f 36//6 22//6 37//6 
f 37//5 22//5 36//5 
f 36//5 22//5 27//5 
f 26//5 27//5 22//5 
f 27//4 33//4 28//4 
f 33//4 27//4 37//4 
f 37//4 27//4 36//4 
f 36//3 27//3 37//3 
f 37//3 27//3 33//3 
f 28//3 33//3 27//3 
f 33//8 34//8 17//8 
f 34//8 33//8 38//8 
f 38//7 33//7 34//7 
f 17//7 34//7 33//7 
f 35//6 37//6 22//6 
f 37//6 35//6 39//6 
f 39//5 35//5 37//5 
f 22//5 37//5 35//5 
f 37//4 38//4 33//4 
f 38//4 37//4 39//4 
f 39//3 37//3 38//3 
f 33//3 38//3 37//3 
# 84 faces

#
# object ID31
#

v  -2.2977 6.9095 -0.3868
v  0.9508 6.9095 1.4888
v  -1.2149 6.9095 1.4888
v  2.0337 6.9095 -0.3868
v  -1.2149 6.9095 -2.2624
v  0.9508 6.9095 -2.2624
# 6 vertices

vn 0.0000 -1.0000 -0.0000
vn 0.0000 1.0000 -0.0000
# 2 vertex normals

vt -1.6476 0.7885 0.0000
vt -1.2790 1.4269 0.0000
vt -1.2790 0.1500 0.0000
vt -0.5418 1.4269 0.0000
vt -0.5418 0.1500 0.0000
vt -0.1732 0.7885 0.0000
# 6 texture coords

o ID31
g ID31
usemtl Material__30
s off
f 40/13/11 41/14/11 42/15/11 
f 41/14/11 40/16/11 43/15/11 
f 43/15/11 40/16/11 44/17/11 
f 43/18/11 44/17/11 45/16/11 
f 45/13/12 44/13/12 43/13/12 
f 44/13/12 40/13/12 43/13/12 
f 43/13/12 40/13/12 41/13/12 
f 42/13/12 41/13/12 40/13/12 
# 8 faces

#
# object ID46
#

v  -2.8066 7.3432 -0.3868
v  -1.4693 0.3073 -2.7031
v  -2.8066 0.3073 -0.3868
v  -1.4693 7.3432 -2.7031
v  -1.4693 0.3073 1.9295
v  -1.4693 7.3432 1.9295
v  1.2053 0.3073 -2.7031
v  0.8532 5.5433 -2.7031
v  1.2053 7.3432 -2.7031
v  0.8532 6.4349 -2.7031
v  -1.1468 5.5433 -2.7031
v  -1.1468 6.4349 -2.7031
v  1.2053 7.3432 1.9295
v  0.8532 6.4349 1.9295
v  1.2053 0.3073 1.9295
v  -1.1468 6.4349 1.9295
v  -1.1468 5.5433 1.9295
v  0.8532 5.5433 1.9295
v  2.5426 7.3432 -0.3868
v  2.5426 0.3073 -0.3868
# 20 vertices

vn -0.8660 0.0000 -0.5000
vn 0.8660 0.0000 0.5000
vn -0.8660 0.0000 0.5000
vn 0.8660 0.0000 -0.5000
vn -0.0000 0.0000 -1.0000
vn 0.0000 0.0000 1.0000
# 6 vertex normals

vt -0.7804 4.3026 0.0000
vt -2.3411 0.1969 0.0000
vt -0.7804 0.1969 0.0000
vt -2.3411 4.3026 0.0000
vt -2.7313 4.3026 0.0000
vt -1.1706 0.1969 0.0000
vt -1.1706 4.3026 0.0000
vt -2.7313 0.1969 0.0000
vt -0.3902 0.1969 0.0000
vt -0.1847 3.2523 0.0000
vt -0.3902 4.3026 0.0000
vt 1.1706 0.1969 0.0000
vt -0.1847 3.7725 0.0000
vt 0.9823 3.2523 0.0000
vt 0.9823 3.7725 0.0000
vt 1.1706 4.3026 0.0000
vt 0.3902 4.3026 0.0000
vt 0.1847 3.7725 0.0000
vt 0.3902 0.1969 0.0000
vt -0.9823 3.7725 0.0000
vt -0.9823 3.2523 0.0000
vt 0.1847 3.2523 0.0000
vt 2.7313 0.1969 0.0000
vt 2.7313 4.3026 0.0000
vt 2.3411 4.3026 0.0000
vt 0.7804 0.1969 0.0000
vt 2.3411 0.1969 0.0000
vt 0.7804 4.3026 0.0000
# 28 texture coords

o ID46
g ID46
usemtl Material__27
s off
f 46/19/13 47/20/13 48/21/13 
f 47/20/13 46/19/13 49/22/13 
f 49/22/14 46/19/14 47/20/14 
f 48/21/14 47/20/14 46/19/14 
f 46/23/15 50/24/15 51/25/15 
f 50/24/15 46/23/15 48/26/15 
f 48/26/16 46/23/16 50/24/16 
f 51/25/16 50/24/16 46/23/16 
f 52/27/17 53/28/17 54/29/17 
f 53/28/17 52/27/17 47/30/17 
f 54/29/17 53/28/17 55/31/17 
f 53/28/17 47/30/17 56/32/17 
f 56/32/17 47/30/17 57/33/17 
f 55/31/17 49/34/17 54/29/17 
f 49/34/17 55/31/17 57/33/17 
f 49/34/17 57/33/17 47/30/17 
f 47/30/18 57/33/18 49/34/18 
f 57/33/18 55/31/18 49/34/18 
f 54/29/18 49/34/18 55/31/18 
f 57/33/18 47/30/18 56/32/18 
f 56/32/18 47/30/18 53/28/18 
f 55/31/18 53/28/18 54/29/18 
f 47/30/18 52/27/18 53/28/18 
f 54/29/18 53/28/18 52/27/18 
f 58/35/18 59/36/18 60/37/18 
f 59/36/18 58/35/18 51/25/18 
f 59/36/18 51/25/18 61/38/18 
f 61/38/18 51/25/18 62/39/18 
f 60/37/18 63/40/18 50/24/18 
f 63/40/18 60/37/18 59/36/18 
f 50/24/18 63/40/18 62/39/18 
f 50/24/18 62/39/18 51/25/18 
f 51/25/17 62/39/17 50/24/17 
f 62/39/17 63/40/17 50/24/17 
f 59/36/17 60/37/17 63/40/17 
f 50/24/17 63/40/17 60/37/17 
f 62/39/17 51/25/17 61/38/17 
f 61/38/17 51/25/17 59/36/17 
f 51/25/17 58/35/17 59/36/17 
f 60/37/17 59/36/17 58/35/17 
f 52/41/16 64/34/16 65/30/16 
f 64/34/16 52/41/16 54/42/16 
f 54/42/15 52/41/15 64/34/15 
f 65/30/15 64/34/15 52/41/15 
f 64/43/14 60/44/14 65/45/14 
f 60/44/14 64/43/14 58/46/14 
f 58/46/13 64/43/13 60/44/13 
f 65/45/13 60/44/13 64/43/13 
# 48 faces

#
# object ID56
#

v  -1.1468 6.4349 1.4888
v  -1.1468 5.5433 1.9295
v  -1.1468 5.5433 1.4888
v  -1.1468 6.4349 1.9295
v  0.8532 5.5433 1.9295
v  0.8532 5.5433 1.4888
v  0.8532 6.4349 1.9295
v  0.8532 6.4349 1.4888
# 8 vertices

vn 1.0000 0.0000 -0.0000
vn -1.0000 0.0000 0.0000
vn 0.0000 1.0000 -0.0000
vn 0.0000 -1.0000 -0.0000
vn 1.0000 -0.0000 -0.0000
# 5 vertex normals

o ID56
g ID56
usemtl wire_160160160
s off
f 66//19 67//19 68//19 
f 67//19 66//19 69//19 
f 69//20 66//20 67//20 
f 68//20 67//20 66//20 
f 70//21 68//21 67//21 
f 68//21 70//21 71//21 
f 71//22 70//22 68//22 
f 67//22 68//22 70//22 
f 66//22 72//22 69//22 
f 72//22 66//22 73//22 
f 73//21 66//21 72//21 
f 69//21 72//21 66//21 
f 72//20 71//20 70//20 
f 71//20 72//20 73//20 
f 73//23 72//23 71//23 
f 70//23 71//23 72//23 
# 16 faces

#
# object ID64
#

v  -1.1468 6.4349 -2.7031
v  -1.1468 5.5433 -2.2624
v  -1.1468 5.5433 -2.7031
v  -1.1468 6.4349 -2.2624
v  0.8532 6.4349 -2.2624
v  0.8532 6.4349 -2.7031
v  0.8532 5.5433 -2.2624
v  0.8532 5.5433 -2.7031
# 8 vertices

vn 1.0000 0.0000 -0.0000
vn -1.0000 -0.0000 0.0000
vn -0.0000 -1.0000 -0.0000
vn 0.0000 1.0000 0.0000
vn -1.0000 0.0000 0.0000
vn 1.0000 -0.0000 -0.0000
# 6 vertex normals

o ID64
g ID64
usemtl wire_160160160
s off
f 74//24 75//24 76//24 
f 75//24 74//24 77//24 
f 77//25 74//25 75//25 
f 76//25 75//25 74//25 
f 74//26 78//26 77//26 
f 78//26 74//26 79//26 
f 79//27 74//27 78//27 
f 77//27 78//27 74//27 
f 80//27 76//27 75//27 
f 76//27 80//27 81//27 
f 81//26 80//26 76//26 
f 75//26 76//26 80//26 
f 78//28 81//28 80//28 
f 81//28 78//28 79//28 
f 79//29 78//29 81//29 
f 80//29 81//29 78//29 
# 16 faces

#
# object ID72
#

v  -1.2149 -0.0301 -2.2624
v  0.9508 0.3073 -2.2624
v  0.9508 -0.0301 -2.2624
v  -1.2149 0.3073 -2.2624
v  2.0337 0.3073 -0.3868
v  2.0337 -0.0301 -0.3868
v  -2.2977 -0.0301 -0.3868
v  0.9508 -0.0301 1.4888
v  -1.2149 -0.0301 1.4888
v  -2.2977 0.3073 -0.3868
v  0.9508 0.3073 1.4888
v  -1.2149 0.3073 1.4888
# 12 vertices

vn -0.0000 0.0000 -1.0000
vn 0.0000 0.0000 1.0000
vn 0.8660 0.0000 -0.5000
vn -0.8660 0.0000 0.5000
vn 0.0000 -1.0000 -0.0000
vn 0.0000 1.0000 -0.0000
vn -0.8660 0.0000 -0.5000
vn 0.8660 0.0000 0.5000
# 8 vertex normals

o ID72
g ID72
usemtl Material__30
s off
f 82//30 83//30 84//30 
f 83//30 82//30 85//30 
f 85//31 82//31 83//31 
f 84//31 83//31 82//31 
f 84//32 86//32 87//32 
f 86//32 84//32 83//32 
f 83//33 84//33 86//33 
f 87//33 86//33 84//33 
f 88//34 89//34 90//34 
f 89//34 88//34 87//34 
f 87//34 88//34 82//34 
f 87//34 82//34 84//34 
f 84//35 82//35 87//35 
f 82//35 88//35 87//35 
f 87//35 88//35 89//35 
f 90//35 89//35 88//35 
f 91//36 82//36 88//36 
f 82//36 91//36 85//36 
f 85//37 91//37 82//37 
f 88//37 82//37 91//37 
f 86//37 89//37 87//37 
f 89//37 86//37 92//37 
f 92//36 86//36 89//36 
f 87//36 89//36 86//36 
f 93//31 89//31 92//31 
f 89//31 93//31 90//31 
f 90//30 93//30 89//30 
f 92//30 89//30 93//30 
f 91//33 90//33 93//33 
f 90//33 91//33 88//33 
f 88//32 91//32 90//32 
f 93//32 90//32 91//32 
# 32 faces

#
# object ID80
#

v  1.2053 7.3432 1.9295
v  -1.2149 7.3432 1.4888
v  -1.4693 7.3432 1.9295
v  0.9508 7.3432 1.4888
v  2.5426 7.3432 -0.3868
v  2.0337 7.3432 -0.3868
v  0.9508 7.3432 -2.2624
v  1.2053 7.3432 -2.7031
v  -2.8066 7.3432 -0.3868
v  -2.2977 7.3432 -0.3868
v  -1.4693 7.3432 -2.7031
v  -1.2149 7.3432 -2.2624
# 12 vertices

vn 0.0000 1.0000 -0.0000
vn 0.0000 -1.0000 -0.0000
# 2 vertex normals

vt 0.7804 0.0000 0.0000
vt 0.2970 1.3516 0.0000
vt 0.0000 1.3516 0.0000
vt 0.9289 0.2572 0.0000
vt 2.3411 0.0000 0.0000
vt 2.1926 0.2572 0.0000
vt 2.8245 1.3516 0.0000
vt 3.1215 1.3516 0.0000
vt 0.7804 2.7033 0.0000
vt 0.9289 2.4461 0.0000
vt 2.3411 2.7033 0.0000
vt 2.1926 2.4461 0.0000
# 12 texture coords

o ID80
g ID80
usemtl Material__27
s off
f 94/47/38 95/48/38 96/49/38 
f 95/48/38 94/47/38 97/50/38 
f 97/50/38 94/47/38 98/51/38 
f 97/50/38 98/51/38 99/52/38 
f 99/52/38 98/51/38 100/53/38 
f 100/53/38 98/51/38 101/54/38 
f 95/48/38 102/55/38 96/49/38 
f 102/55/38 95/48/38 103/56/38 
f 102/55/38 103/56/38 104/57/38 
f 104/57/38 103/56/38 105/58/38 
f 104/57/38 105/58/38 100/53/38 
f 104/57/38 100/53/38 101/54/38 
f 101/47/39 100/47/39 104/47/39 
f 100/47/39 105/47/39 104/47/39 
f 105/47/39 103/47/39 104/47/39 
f 104/47/39 103/47/39 102/47/39 
f 103/47/39 95/47/39 102/47/39 
f 96/47/39 102/47/39 95/47/39 
f 101/47/39 98/47/39 100/47/39 
f 100/47/39 98/47/39 99/47/39 
f 99/47/39 98/47/39 97/47/39 
f 98/47/39 94/47/39 97/47/39 
f 97/47/39 94/47/39 95/47/39 
f 96/47/39 95/47/39 94/47/39 
# 24 faces

