# 3ds Max Wavefront OBJ Exporter v0.97b - (c)2007 guruware
# File Created: 07.05.2020 13:55:46

mtllib legoArbol.mtl

#
# object Piece1
#

v  0.2481 2.6525 -0.0133
v  -2.7519 2.6525 -0.0133
v  -2.5219 2.6519 -1.1633
v  -1.8719 2.6515 -2.1333
v  -0.9019 2.6512 -2.7833
v  0.2481 2.6511 -3.0133
v  1.3981 2.6512 -2.7833
v  2.3681 2.6515 -2.1333
v  3.0181 2.6519 -1.1633
v  3.2481 2.6525 -0.0133
v  3.0181 2.6530 1.1367
v  2.3681 2.6534 2.1067
v  1.3981 2.6537 2.7567
v  0.2481 2.6539 2.9867
v  -0.9019 2.6537 2.7567
v  -1.8719 2.6534 2.1067
v  -2.5219 2.6530 1.1367
v  0.2481 2.6506 -4.0133
v  0.2481 2.6501 -5.0133
v  2.1631 2.6503 -4.6333
v  1.7781 2.6507 -3.7083
v  3.7831 2.6508 -3.5483
v  3.0781 2.6511 -2.8433
v  4.8681 2.6516 -1.9283
v  3.9431 2.6517 -1.5433
v  5.2481 2.6525 -0.0133
v  4.2481 2.6525 -0.0133
v  4.8681 2.6533 1.9017
v  3.9431 2.6532 1.5167
v  3.7831 2.6541 3.5217
v  3.0781 2.6538 2.8167
v  2.1631 2.6546 4.6067
v  1.7781 2.6542 3.6817
v  0.2481 2.6548 4.9867
v  0.2481 2.6543 3.9867
v  -1.6669 2.6546 4.6067
v  -1.2819 2.6542 3.6817
v  -3.2869 2.6541 3.5217
v  -2.5819 2.6538 2.8167
v  -4.3719 2.6533 1.9017
v  -3.4469 2.6532 1.5167
v  -4.7519 2.6525 -0.0133
v  -3.7519 2.6525 -0.0133
v  -4.3719 2.6516 -1.9283
v  -3.4469 2.6517 -1.5433
v  -3.2869 2.6508 -3.5483
v  -2.5819 2.6511 -2.8433
v  -1.6669 2.6503 -4.6333
v  -1.2819 2.6507 -3.7083
v  4.8681 4.1516 -1.9290
v  5.2481 4.1525 -0.0140
v  3.7831 4.1508 -3.5490
v  2.1631 4.1503 -4.6340
v  0.2481 4.1501 -5.0140
v  -1.6669 4.1503 -4.6340
v  -3.2869 4.1508 -3.5490
v  -4.3719 4.1516 -1.9290
v  -4.7519 4.1525 -0.0140
v  -4.3719 4.1533 1.9010
v  -3.2869 4.1541 3.5210
v  -1.6669 4.1546 4.6060
v  0.2481 4.1548 4.9860
v  2.1631 4.1546 4.6060
v  3.7831 4.1541 3.5210
v  4.8681 4.1533 1.9010
v  0.2481 4.1506 -4.0140
v  -1.2819 4.1507 -3.7090
v  -2.5819 4.1511 -2.8440
v  -3.4469 4.1517 -1.5440
v  -3.7519 4.1525 -0.0140
v  -3.4469 4.1532 1.5160
v  -2.5819 4.1538 2.8160
v  -1.2819 4.1542 3.6810
v  0.2481 4.1543 3.9860
v  1.7781 4.1542 3.6810
v  3.0781 4.1538 2.8160
v  3.9431 4.1532 1.5160
v  4.2481 4.1525 -0.0140
v  3.9431 4.1517 -1.5440
v  3.0781 4.1511 -2.8440
v  1.7781 4.1507 -3.7090
v  0.2481 4.1511 -3.0140
v  -0.9019 4.1512 -2.7840
v  -1.8719 4.1515 -2.1340
v  -2.5219 4.1519 -1.1640
v  -2.7519 4.1525 -0.0140
v  -2.5219 4.1530 1.1360
v  -1.8719 4.1534 2.1060
v  -0.9019 4.1537 2.7560
v  0.2481 4.1539 2.9860
v  1.3981 4.1537 2.7560
v  2.3681 4.1534 2.1060
v  3.0181 4.1530 1.1360
v  3.2481 4.1525 -0.0140
v  3.0181 4.1519 -1.1640
v  2.3681 4.1515 -2.1340
v  1.3981 4.1512 -2.7840
v  -2.5219 0.1519 -1.1622
v  -2.7519 0.1525 -0.0122
v  -1.8719 0.1515 -2.1322
v  -0.9019 0.1512 -2.7822
v  0.2481 0.1511 -3.0122
v  1.3981 0.1512 -2.7822
v  2.3681 0.1515 -2.1322
v  3.0181 0.1519 -1.1622
v  3.2481 0.1525 -0.0122
v  3.0181 0.1530 1.1378
v  2.3681 0.1534 2.1078
v  1.3981 0.1537 2.7578
v  0.2481 0.1539 2.9878
v  -0.9019 0.1537 2.7578
v  -1.8719 0.1534 2.1078
v  -2.5219 0.1530 1.1378
v  -3.4469 0.1517 -1.5422
v  -3.7519 0.1525 -0.0122
v  -2.5819 0.1511 -2.8422
v  -1.2819 0.1507 -3.7072
v  0.2481 0.1506 -4.0122
v  1.7781 0.1507 -3.7072
v  3.0781 0.1511 -2.8422
v  3.9431 0.1517 -1.5422
v  4.2481 0.1525 -0.0122
v  3.9431 0.1532 1.5178
v  3.0781 0.1538 2.8178
v  1.7781 0.1542 3.6828
v  0.2481 0.1543 3.9878
v  -1.2819 0.1542 3.6828
v  -2.5819 0.1538 2.8178
v  -3.4469 0.1532 1.5178
v  3.2481 6.1525 -0.0149
v  3.0181 6.1519 -1.1649
v  2.3681 6.1515 -2.1349
v  1.3981 6.1512 -2.7849
v  0.2481 6.1511 -3.0149
v  -0.9019 6.1512 -2.7849
v  -1.8719 6.1515 -2.1349
v  -2.5219 6.1519 -1.1649
v  -2.7519 6.1525 -0.0149
v  -2.5219 6.1530 1.1351
v  -1.8719 6.1534 2.1051
v  -0.9019 6.1537 2.7551
v  0.2481 6.1539 2.9851
v  1.3981 6.1537 2.7551
v  2.3681 6.1534 2.1051
v  3.0181 6.1530 1.1351
v  0.2481 6.1525 -0.0149
# 146 vertices

vn 0.0000 -1.0000 0.0005
vn -0.0000 -0.6662 -0.7458
vn 0.2858 -0.6659 -0.6891
vn 0.5275 -0.6662 -0.5272
vn 0.6894 -0.6657 -0.2855
vn 0.7461 -0.6658 0.0003
vn 0.6894 -0.6654 0.2861
vn 0.5275 -0.6657 0.5278
vn 0.2858 -0.6652 0.6897
vn 0.0000 -0.6655 0.7464
vn -0.2858 -0.6652 0.6897
vn -0.5275 -0.6657 0.5278
vn -0.6894 -0.6654 0.2861
vn -0.7461 -0.6658 0.0003
vn -0.6894 -0.6657 -0.2855
vn -0.5275 -0.6662 -0.5272
vn -0.2858 -0.6659 -0.6891
vn 0.6894 0.6654 -0.2861
vn 0.7461 0.6658 -0.0003
vn 0.5275 0.6657 -0.5278
vn 0.2858 0.6652 -0.6897
vn 0.0000 0.6655 -0.7464
vn -0.2858 0.6652 -0.6897
vn -0.5275 0.6657 -0.5278
vn -0.6894 0.6654 -0.2861
vn -0.7461 0.6658 -0.0003
vn -0.6894 0.6657 0.2855
vn -0.5275 0.6662 0.5272
vn -0.2858 0.6659 0.6891
vn 0.0000 0.6662 0.7458
vn 0.2858 0.6659 0.6891
vn 0.5275 0.6662 0.5272
vn 0.6894 0.6657 0.2855
vn 0.0000 1.0000 -0.0005
vn -0.9234 -0.0002 -0.3838
vn -1.0000 0.0000 0.0000
vn -0.7071 -0.0003 -0.7071
vn -0.3838 -0.0004 -0.9234
vn -0.0000 -0.0005 -1.0000
vn 0.0000 -0.0005 -1.0000
vn 0.3838 -0.0004 -0.9234
vn 0.7071 -0.0003 -0.7071
vn 0.9234 -0.0002 -0.3838
vn 1.0000 0.0000 0.0000
vn 0.9234 0.0002 0.3838
vn 0.7071 0.0003 0.7071
vn 0.3838 0.0004 0.9234
vn 0.0000 0.0005 1.0000
vn -0.0000 0.0005 1.0000
vn -0.3838 0.0004 0.9234
vn -0.7071 0.0003 0.7071
vn -0.9234 0.0002 0.3838
vn -0.7756 -0.5439 -0.3203
vn -0.8392 -0.5438 0.0003
vn -0.9242 -0.0002 -0.3820
vn -0.5935 -0.5440 -0.5932
vn -0.3203 -0.5453 -0.7746
vn -0.3820 -0.0004 -0.9242
vn 0.0000 -0.5442 -0.8390
vn 0.3206 -0.5441 -0.7754
vn 0.3820 -0.0004 -0.9242
vn 0.5935 -0.5440 -0.5932
vn 0.7749 -0.5451 -0.3200
vn 0.9242 -0.0002 -0.3820
vn 0.8392 -0.5438 0.0003
vn 0.7756 -0.5436 0.3208
vn 0.9242 0.0002 0.3820
vn 0.5935 -0.5434 0.5937
vn 0.3203 -0.5446 0.7751
vn 0.3820 0.0004 0.9242
vn 0.0000 -0.5434 0.8395
vn -0.3206 -0.5434 0.7759
vn -0.3820 0.0004 0.9242
vn -0.5935 -0.5434 0.5937
vn -0.7749 -0.5448 0.3205
vn -0.9242 0.0002 0.3820
vn -1.0000 -0.0000 -0.0000
vn 1.0000 -0.0000 -0.0000
# 78 vertex normals

vt 0.0000 0.0000 0.0000
# 1 texture coords

o Piece1
g Piece1
usemtl Material__28
s 1
f 1/1/1 2/1/1 3/1/1 
f 1/1/1 3/1/1 4/1/1 
f 1/1/1 4/1/1 5/1/1 
f 1/1/1 5/1/1 6/1/1 
f 1/1/1 6/1/1 7/1/1 
f 1/1/1 7/1/1 8/1/1 
f 1/1/1 8/1/1 9/1/1 
f 1/1/1 9/1/1 10/1/1 
f 1/1/1 10/1/1 11/1/1 
f 1/1/1 11/1/1 12/1/1 
f 1/1/1 12/1/1 13/1/1 
f 1/1/1 13/1/1 14/1/1 
f 1/1/1 14/1/1 15/1/1 
f 1/1/1 15/1/1 16/1/1 
f 1/1/1 16/1/1 17/1/1 
f 1/1/1 17/1/1 2/1/1 
f 18/1/1 19/1/2 20/1/3 
f 20/1/3 21/1/1 18/1/1 
f 21/1/1 20/1/3 22/1/4 
f 22/1/4 23/1/1 21/1/1 
f 23/1/1 22/1/4 24/1/5 
f 24/1/5 25/1/1 23/1/1 
f 25/1/1 24/1/5 26/1/6 
f 26/1/6 27/1/1 25/1/1 
f 27/1/1 26/1/6 28/1/7 
f 28/1/7 29/1/1 27/1/1 
f 29/1/1 28/1/7 30/1/8 
f 30/1/8 31/1/1 29/1/1 
f 31/1/1 30/1/8 32/1/9 
f 32/1/9 33/1/1 31/1/1 
f 33/1/1 32/1/9 34/1/10 
f 34/1/10 35/1/1 33/1/1 
f 35/1/1 34/1/10 36/1/11 
f 36/1/11 37/1/1 35/1/1 
f 37/1/1 36/1/11 38/1/12 
f 38/1/12 39/1/1 37/1/1 
f 39/1/1 38/1/12 40/1/13 
f 40/1/13 41/1/1 39/1/1 
f 41/1/1 40/1/13 42/1/14 
f 42/1/14 43/1/1 41/1/1 
f 43/1/1 42/1/14 44/1/15 
f 44/1/15 45/1/1 43/1/1 
f 45/1/1 44/1/15 46/1/16 
f 46/1/16 47/1/1 45/1/1 
f 47/1/1 46/1/16 48/1/17 
f 48/1/17 49/1/1 47/1/1 
f 49/1/1 48/1/17 19/1/2 
f 19/1/2 18/1/1 49/1/1 
f 50/1/18 51/1/19 26/1/6 
f 26/1/6 24/1/5 50/1/18 
f 52/1/20 50/1/18 24/1/5 
f 24/1/5 22/1/4 52/1/20 
f 53/1/21 52/1/20 22/1/4 
f 22/1/4 20/1/3 53/1/21 
f 54/1/22 53/1/21 20/1/3 
f 20/1/3 19/1/2 54/1/22 
f 55/1/23 54/1/22 19/1/2 
f 19/1/2 48/1/17 55/1/23 
f 56/1/24 55/1/23 48/1/17 
f 48/1/17 46/1/16 56/1/24 
f 57/1/25 56/1/24 46/1/16 
f 46/1/16 44/1/15 57/1/25 
f 58/1/26 57/1/25 44/1/15 
f 44/1/15 42/1/14 58/1/26 
f 59/1/27 58/1/26 42/1/14 
f 42/1/14 40/1/13 59/1/27 
f 60/1/28 59/1/27 40/1/13 
f 40/1/13 38/1/12 60/1/28 
f 61/1/29 60/1/28 38/1/12 
f 38/1/12 36/1/11 61/1/29 
f 62/1/30 61/1/29 36/1/11 
f 36/1/11 34/1/10 62/1/30 
f 63/1/31 62/1/30 34/1/10 
f 34/1/10 32/1/9 63/1/31 
f 64/1/32 63/1/31 32/1/9 
f 32/1/9 30/1/8 64/1/32 
f 65/1/33 64/1/32 30/1/8 
f 30/1/8 28/1/7 65/1/33 
f 51/1/19 65/1/33 28/1/7 
f 28/1/7 26/1/6 51/1/19 
f 66/1/34 54/1/22 55/1/23 
f 55/1/23 67/1/34 66/1/34 
f 67/1/34 55/1/23 56/1/24 
f 56/1/24 68/1/34 67/1/34 
f 68/1/34 56/1/24 57/1/25 
f 57/1/25 69/1/34 68/1/34 
f 69/1/34 57/1/25 58/1/26 
f 58/1/26 70/1/34 69/1/34 
f 70/1/34 58/1/26 59/1/27 
f 59/1/27 71/1/34 70/1/34 
f 71/1/34 59/1/27 60/1/28 
f 60/1/28 72/1/34 71/1/34 
f 72/1/34 60/1/28 61/1/29 
f 61/1/29 73/1/34 72/1/34 
f 73/1/34 61/1/29 62/1/30 
f 62/1/30 74/1/34 73/1/34 
f 74/1/34 62/1/30 63/1/31 
f 63/1/31 75/1/34 74/1/34 
f 75/1/34 63/1/31 64/1/32 
f 64/1/32 76/1/34 75/1/34 
f 76/1/34 64/1/32 65/1/33 
f 65/1/33 77/1/34 76/1/34 
f 77/1/34 65/1/33 51/1/19 
f 51/1/19 78/1/34 77/1/34 
f 78/1/34 51/1/19 50/1/18 
f 50/1/18 79/1/34 78/1/34 
f 79/1/34 50/1/18 52/1/20 
f 52/1/20 80/1/34 79/1/34 
f 80/1/34 52/1/20 53/1/21 
f 53/1/21 81/1/34 80/1/34 
f 81/1/34 53/1/21 54/1/22 
f 54/1/22 66/1/34 81/1/34 
f 82/1/34 66/1/34 67/1/34 
f 67/1/34 83/1/34 82/1/34 
f 83/1/34 67/1/34 68/1/34 
f 68/1/34 84/1/34 83/1/34 
f 84/1/34 68/1/34 69/1/34 
f 69/1/34 85/1/34 84/1/34 
f 85/1/34 69/1/34 70/1/34 
f 70/1/34 86/1/34 85/1/34 
f 86/1/34 70/1/34 71/1/34 
f 71/1/34 87/1/34 86/1/34 
f 87/1/34 71/1/34 72/1/34 
f 72/1/34 88/1/34 87/1/34 
f 88/1/34 72/1/34 73/1/34 
f 73/1/34 89/1/34 88/1/34 
f 89/1/34 73/1/34 74/1/34 
f 74/1/34 90/1/34 89/1/34 
f 90/1/34 74/1/34 75/1/34 
f 75/1/34 91/1/34 90/1/34 
f 91/1/34 75/1/34 76/1/34 
f 76/1/34 92/1/34 91/1/34 
f 92/1/34 76/1/34 77/1/34 
f 77/1/34 93/1/34 92/1/34 
f 93/1/34 77/1/34 78/1/34 
f 78/1/34 94/1/34 93/1/34 
f 94/1/34 78/1/34 79/1/34 
f 79/1/34 95/1/34 94/1/34 
f 95/1/34 79/1/34 80/1/34 
f 80/1/34 96/1/34 95/1/34 
f 96/1/34 80/1/34 81/1/34 
f 81/1/34 97/1/34 96/1/34 
f 97/1/34 81/1/34 66/1/34 
f 66/1/34 82/1/34 97/1/34 
f 98/1/35 99/1/36 2/1/36 
f 2/1/36 3/1/35 98/1/35 
f 100/1/37 98/1/35 3/1/35 
f 3/1/35 4/1/37 100/1/37 
f 101/1/38 100/1/37 4/1/37 
f 4/1/37 5/1/38 101/1/38 
f 102/1/39 101/1/38 5/1/38 
f 5/1/38 6/1/40 102/1/39 
f 103/1/41 102/1/39 6/1/40 
f 6/1/40 7/1/41 103/1/41 
f 104/1/42 103/1/41 7/1/41 
f 7/1/41 8/1/42 104/1/42 
f 105/1/43 104/1/42 8/1/42 
f 8/1/42 9/1/43 105/1/43 
f 106/1/44 105/1/43 9/1/43 
f 9/1/43 10/1/44 106/1/44 
f 107/1/45 106/1/44 10/1/44 
f 10/1/44 11/1/45 107/1/45 
f 108/1/46 107/1/45 11/1/45 
f 11/1/45 12/1/46 108/1/46 
f 109/1/47 108/1/46 12/1/46 
f 12/1/46 13/1/47 109/1/47 
f 110/1/48 109/1/47 13/1/47 
f 13/1/47 14/1/49 110/1/48 
f 111/1/50 110/1/48 14/1/49 
f 14/1/49 15/1/50 111/1/50 
f 112/1/51 111/1/50 15/1/50 
f 15/1/50 16/1/51 112/1/51 
f 113/1/52 112/1/51 16/1/51 
f 16/1/51 17/1/52 113/1/52 
f 99/1/36 113/1/52 17/1/52 
f 17/1/52 2/1/36 99/1/36 
f 114/1/53 115/1/54 43/1/36 
f 43/1/36 45/1/55 114/1/53 
f 116/1/56 114/1/53 45/1/55 
f 45/1/55 47/1/37 116/1/56 
f 117/1/57 116/1/56 47/1/37 
f 47/1/37 49/1/58 117/1/57 
f 118/1/59 117/1/57 49/1/58 
f 49/1/58 18/1/40 118/1/59 
f 119/1/60 118/1/59 18/1/40 
f 18/1/40 21/1/61 119/1/60 
f 120/1/62 119/1/60 21/1/61 
f 21/1/61 23/1/42 120/1/62 
f 121/1/63 120/1/62 23/1/42 
f 23/1/42 25/1/64 121/1/63 
f 122/1/65 121/1/63 25/1/64 
f 25/1/64 27/1/44 122/1/65 
f 123/1/66 122/1/65 27/1/44 
f 27/1/44 29/1/67 123/1/66 
f 124/1/68 123/1/66 29/1/67 
f 29/1/67 31/1/46 124/1/68 
f 125/1/69 124/1/68 31/1/46 
f 31/1/46 33/1/70 125/1/69 
f 126/1/71 125/1/69 33/1/70 
f 33/1/70 35/1/49 126/1/71 
f 127/1/72 126/1/71 35/1/49 
f 35/1/49 37/1/73 127/1/72 
f 128/1/74 127/1/72 37/1/73 
f 37/1/73 39/1/51 128/1/74 
f 129/1/75 128/1/74 39/1/51 
f 39/1/51 41/1/76 129/1/75 
f 115/1/54 129/1/75 41/1/76 
f 41/1/76 43/1/36 115/1/54 
f 102/1/1 118/1/59 119/1/60 
f 119/1/1 103/1/1 102/1/1 
f 103/1/1 119/1/60 120/1/62 
f 120/1/1 104/1/1 103/1/1 
f 104/1/1 120/1/62 121/1/63 
f 121/1/1 105/1/1 104/1/1 
f 105/1/1 121/1/63 122/1/65 
f 122/1/1 106/1/1 105/1/1 
f 106/1/1 122/1/65 123/1/66 
f 123/1/1 107/1/1 106/1/1 
f 107/1/1 123/1/66 124/1/68 
f 124/1/1 108/1/1 107/1/1 
f 108/1/1 124/1/68 125/1/69 
f 125/1/1 109/1/1 108/1/1 
f 109/1/1 125/1/69 126/1/71 
f 126/1/1 110/1/1 109/1/1 
f 110/1/1 126/1/71 127/1/72 
f 127/1/1 111/1/1 110/1/1 
f 111/1/1 127/1/72 128/1/74 
f 128/1/1 112/1/1 111/1/1 
f 112/1/1 128/1/74 129/1/75 
f 129/1/1 113/1/1 112/1/1 
f 113/1/1 129/1/75 115/1/54 
f 115/1/1 99/1/1 113/1/1 
f 99/1/1 115/1/54 114/1/53 
f 114/1/1 98/1/1 99/1/1 
f 98/1/1 114/1/53 116/1/56 
f 116/1/1 100/1/1 98/1/1 
f 100/1/1 116/1/56 117/1/57 
f 117/1/1 101/1/1 100/1/1 
f 101/1/1 117/1/57 118/1/59 
f 118/1/1 102/1/1 101/1/1 
f 95/1/52 94/1/77 130/1/77 
f 130/1/77 131/1/52 95/1/52 
f 96/1/51 95/1/52 131/1/52 
f 131/1/52 132/1/51 96/1/51 
f 97/1/50 96/1/51 132/1/51 
f 132/1/51 133/1/50 97/1/50 
f 82/1/48 97/1/50 133/1/50 
f 133/1/50 134/1/49 82/1/48 
f 83/1/47 82/1/48 134/1/49 
f 134/1/49 135/1/47 83/1/47 
f 84/1/46 83/1/47 135/1/47 
f 135/1/47 136/1/46 84/1/46 
f 85/1/45 84/1/46 136/1/46 
f 136/1/46 137/1/45 85/1/45 
f 86/1/78 85/1/45 137/1/45 
f 137/1/45 138/1/78 86/1/78 
f 87/1/43 86/1/78 138/1/78 
f 138/1/78 139/1/43 87/1/43 
f 88/1/42 87/1/43 139/1/43 
f 139/1/43 140/1/42 88/1/42 
f 89/1/41 88/1/42 140/1/42 
f 140/1/42 141/1/41 89/1/41 
f 90/1/39 89/1/41 141/1/41 
f 141/1/41 142/1/40 90/1/39 
f 91/1/38 90/1/39 142/1/40 
f 142/1/40 143/1/38 91/1/38 
f 92/1/37 91/1/38 143/1/38 
f 143/1/38 144/1/37 92/1/37 
f 93/1/35 92/1/37 144/1/37 
f 144/1/37 145/1/35 93/1/35 
f 94/1/77 93/1/35 145/1/35 
f 145/1/35 130/1/77 94/1/77 
f 146/1/34 130/1/34 131/1/34 
f 146/1/34 131/1/34 132/1/34 
f 146/1/34 132/1/34 133/1/34 
f 146/1/34 133/1/34 134/1/34 
f 146/1/34 134/1/34 135/1/34 
f 146/1/34 135/1/34 136/1/34 
f 146/1/34 136/1/34 137/1/34 
f 146/1/34 137/1/34 138/1/34 
f 146/1/34 138/1/34 139/1/34 
f 146/1/34 139/1/34 140/1/34 
f 146/1/34 140/1/34 141/1/34 
f 146/1/34 141/1/34 142/1/34 
f 146/1/34 142/1/34 143/1/34 
f 146/1/34 143/1/34 144/1/34 
f 146/1/34 144/1/34 145/1/34 
f 146/1/34 145/1/34 130/1/34 
# 288 faces

#
# object Piece2
#

v  3.6081 14.1537 2.5713
v  -3.1119 14.1512 -2.6087
v  -2.3419 14.1540 3.3413
v  2.8381 14.1509 -3.3787
v  2.8381 4.1509 -3.3740
v  -3.1119 4.1512 -2.6040
v  -2.3419 4.1540 3.3460
v  3.6081 4.1537 2.5760
v  4.5631 4.1498 -5.6140
v  -5.3519 4.1504 -4.3290
v  -4.0669 4.1551 5.5860
v  5.8481 4.1545 4.3010
v  5.8481 16.1545 4.2954
v  -5.3519 16.1504 -4.3346
v  -4.0669 16.1551 5.5804
v  4.5631 16.1498 -5.6196
v  2.8481 16.1518 -1.5146
v  3.2231 18.1523 -0.4055
v  3.2231 16.1523 -0.4046
v  2.8481 18.1518 -1.5155
v  2.0781 16.1513 -2.3946
v  2.0781 18.1513 -2.3955
v  1.0281 16.1511 -2.9146
v  1.0281 18.1511 -2.9155
v  -0.1369 16.1511 -2.9946
v  -0.1369 18.1511 -2.9955
v  -1.2469 16.1512 -2.6196
v  -1.2469 18.1512 -2.6205
v  -2.1269 16.1516 -1.8496
v  -2.1269 18.1516 -1.8505
v  -2.6469 16.1521 -0.7996
v  -2.6469 18.1521 -0.8005
v  -2.7269 16.1526 0.3654
v  -2.7269 18.1526 0.3645
v  -2.3519 16.1531 1.4754
v  -2.3519 18.1531 1.4745
v  -1.5819 16.1536 2.3554
v  -1.5819 18.1536 2.3545
v  -0.5319 16.1538 2.8754
v  -0.5319 18.1538 2.8745
v  0.6331 16.1538 2.9554
v  0.6331 18.1538 2.9545
v  1.7431 16.1537 2.5804
v  1.7431 18.1537 2.5795
v  2.6231 16.1533 1.8104
v  2.6231 18.1533 1.8095
v  3.1431 16.1528 0.7604
v  3.1431 18.1528 0.7595
v  0.2481 18.1524 -0.0205
# 49 vertices

vn 0.6467 0.5776 0.4982
vn -0.6467 0.5771 -0.4987
vn -0.4985 0.5777 0.6464
vn 0.4985 0.5770 -0.6469
vn 0.2603 0.9044 -0.3381
vn -0.3377 0.9044 -0.2607
vn -0.2603 0.9047 0.3373
vn 0.3377 0.9047 0.2599
vn 0.0000 1.0000 -0.0005
vn 0.6995 0.6579 0.2790
vn -0.6995 0.6577 -0.2796
vn -0.2793 0.6581 0.6992
vn 0.2793 0.6575 -0.6998
vn -0.1285 -0.0005 -0.9917
vn -0.9917 0.0001 0.1285
vn 0.1285 0.0005 0.9917
vn 0.9917 -0.0001 -0.1285
vn 0.8667 -0.0002 -0.4989
vn 0.9917 -0.0001 -0.1283
vn 0.6099 -0.0004 -0.7925
vn 0.2611 -0.0004 -0.9653
vn -0.1283 -0.0005 -0.9917
vn -0.4989 -0.0004 -0.8667
vn -0.7925 -0.0003 -0.6099
vn -0.9653 -0.0001 -0.2611
vn -0.9917 0.0001 0.1283
vn -0.8667 0.0002 0.4989
vn -0.6099 0.0004 0.7925
vn -0.2611 0.0004 0.9653
vn 0.1283 0.0005 0.9917
vn 0.4989 0.0004 0.8667
vn 0.7925 0.0003 0.6099
vn 0.9653 0.0001 0.2611
vn 0.0000 -1.0000 0.0005
# 34 vertex normals

vt 0.0000 0.0000 0.0000
# 1 texture coords

o Piece2
g Piece2
usemtl Material__29
s 1
f 147/2/79 148/2/80 149/2/81 
f 148/2/80 147/2/79 150/2/82 
f 151/2/83 148/2/80 150/2/82 
f 148/2/80 151/2/83 152/2/84 
f 152/2/84 149/2/81 148/2/80 
f 149/2/81 152/2/84 153/2/85 
f 153/2/85 147/2/79 149/2/81 
f 147/2/79 153/2/85 154/2/86 
f 154/2/86 150/2/82 147/2/79 
f 150/2/82 154/2/86 151/2/83 
f 152/2/84 155/2/87 156/2/87 
f 155/2/87 152/2/84 151/2/83 
f 153/2/85 156/2/87 157/2/87 
f 156/2/87 153/2/85 152/2/84 
f 154/2/86 157/2/87 158/2/87 
f 157/2/87 154/2/86 153/2/85 
f 151/2/83 158/2/87 155/2/87 
f 158/2/87 151/2/83 154/2/86 
f 159/2/88 160/2/89 161/2/90 
f 160/2/89 159/2/88 162/2/91 
f 155/2/92 160/2/89 162/2/91 
f 160/2/92 155/2/92 156/2/92 
f 156/2/93 161/2/90 160/2/89 
f 161/2/93 156/2/93 157/2/93 
f 157/2/94 159/2/88 161/2/90 
f 159/2/94 157/2/94 158/2/94 
f 158/2/95 162/2/91 159/2/88 
f 162/2/95 158/2/95 155/2/95 
f 163/2/96 164/2/97 165/2/97 
f 164/2/97 163/2/96 166/2/96 
f 167/2/98 166/2/96 163/2/96 
f 166/2/96 167/2/98 168/2/98 
f 169/2/99 168/2/98 167/2/98 
f 168/2/98 169/2/99 170/2/99 
f 171/2/100 170/2/99 169/2/99 
f 170/2/99 171/2/100 172/2/100 
f 173/2/101 172/2/100 171/2/100 
f 172/2/100 173/2/101 174/2/101 
f 175/2/102 174/2/101 173/2/101 
f 174/2/101 175/2/102 176/2/102 
f 177/2/103 176/2/102 175/2/102 
f 176/2/102 177/2/103 178/2/103 
f 179/2/104 178/2/103 177/2/103 
f 178/2/103 179/2/104 180/2/104 
f 181/2/105 180/2/104 179/2/104 
f 180/2/104 181/2/105 182/2/105 
f 183/2/106 182/2/105 181/2/105 
f 182/2/105 183/2/106 184/2/106 
f 185/2/107 184/2/106 183/2/106 
f 184/2/106 185/2/107 186/2/107 
f 187/2/108 186/2/107 185/2/107 
f 186/2/107 187/2/108 188/2/108 
f 189/2/109 188/2/108 187/2/108 
f 188/2/108 189/2/109 190/2/109 
f 191/2/110 190/2/109 189/2/109 
f 190/2/109 191/2/110 192/2/110 
f 193/2/111 192/2/110 191/2/110 
f 192/2/110 193/2/111 194/2/111 
f 165/2/97 194/2/111 193/2/111 
f 194/2/111 165/2/97 164/2/97 
f 195/2/112 166/2/112 164/2/112 
f 195/2/112 168/2/112 166/2/112 
f 195/2/112 170/2/112 168/2/112 
f 195/2/112 172/2/112 170/2/112 
f 195/2/112 174/2/112 172/2/112 
f 195/2/112 176/2/112 174/2/112 
f 195/2/112 178/2/112 176/2/112 
f 195/2/112 180/2/112 178/2/112 
f 195/2/112 182/2/112 180/2/112 
f 195/2/112 184/2/112 182/2/112 
f 195/2/112 186/2/112 184/2/112 
f 195/2/112 188/2/112 186/2/112 
f 195/2/112 190/2/112 188/2/112 
f 195/2/112 192/2/112 190/2/112 
f 195/2/112 194/2/112 192/2/112 
f 195/2/112 164/2/112 194/2/112 
# 76 faces

#
# object Piece3
#

v  4.4631 26.1590 1.0115
v  -3.9669 26.1585 0.0015
v  -0.2569 26.1607 4.7215
v  0.7531 26.1568 -3.7085
v  0.7531 16.1568 -3.7038
v  -3.9669 16.1585 0.0062
v  -0.2569 16.1607 4.7262
v  4.4631 16.1590 1.0162
v  1.0881 16.1555 -6.5088
v  -6.7719 16.1584 -0.3288
v  -0.5919 16.1620 7.5312
v  7.2681 16.1591 1.3512
v  7.2681 28.1591 1.3456
v  -6.7719 28.1584 -0.3344
v  -0.5919 28.1620 7.5256
v  1.0881 28.1555 -6.5144
v  1.7181 28.1575 -2.1094
v  2.6081 30.1579 -1.3503
v  2.6081 28.1579 -1.3494
v  1.7181 30.1575 -2.1103
v  0.6031 28.1574 -2.4744
v  0.6031 30.1574 -2.4753
v  -0.5619 28.1574 -2.3844
v  -0.5619 30.1574 -2.3853
v  -1.6069 28.1576 -1.8544
v  -1.6069 30.1576 -1.8553
v  -2.3669 28.1581 -0.9644
v  -2.3669 30.1581 -0.9653
v  -2.7319 28.1586 0.1506
v  -2.7319 30.1586 0.1497
v  -2.6419 28.1591 1.3156
v  -2.6419 30.1591 1.3147
v  -2.1119 28.1596 2.3606
v  -2.1119 30.1596 2.3597
v  -1.2219 28.1600 3.1206
v  -1.2219 30.1600 3.1197
v  -0.1069 28.1601 3.4856
v  -0.1069 30.1601 3.4847
v  1.0581 28.1601 3.3956
v  1.0581 30.1601 3.3947
v  2.1031 28.1598 2.8656
v  2.1031 30.1598 2.8647
v  2.8631 28.1594 1.9756
v  2.8631 30.1594 1.9747
v  3.2281 28.1589 0.8606
v  3.2281 30.1589 0.8597
v  3.1381 28.1584 -0.3044
v  3.1381 30.1584 -0.3053
v  0.2481 30.1587 0.5047
# 49 vertices

vn 0.8107 0.5774 0.0969
vn -0.8107 0.5773 -0.0974
vn -0.0971 0.5777 0.8104
vn 0.0971 0.5770 -0.8110
vn 0.0507 0.9043 -0.4238
vn -0.4234 0.9045 -0.0511
vn -0.0507 0.9047 0.4230
vn 0.4234 0.9046 0.0503
vn 0.0000 1.0000 -0.0005
vn 0.7439 0.6577 -0.1185
vn -0.7439 0.6579 0.1179
vn 0.1182 0.6581 0.7436
vn -0.1182 0.6574 -0.7442
vn -0.6181 -0.0004 -0.7861
vn -0.7861 0.0003 0.6181
vn 0.6181 0.0004 0.7861
vn 0.7861 -0.0003 -0.6181
vn 0.4895 -0.0004 -0.8720
vn 0.7859 -0.0003 -0.6184
vn 0.1193 -0.0005 -0.9929
vn -0.2698 -0.0004 -0.9629
vn -0.6184 -0.0004 -0.7859
vn -0.8720 -0.0002 -0.4895
vn -0.9929 -0.0001 -0.1193
vn -0.9629 0.0001 0.2699
vn -0.7859 0.0003 0.6184
vn -0.4895 0.0004 0.8720
vn -0.1193 0.0005 0.9929
vn 0.2698 0.0004 0.9629
vn 0.6184 0.0004 0.7859
vn 0.8720 0.0002 0.4895
vn 0.9929 0.0001 0.1193
vn 0.9629 -0.0001 -0.2699
vn 0.0000 -1.0000 0.0005
# 34 vertex normals

vt 0.0000 0.0000 0.0000
# 1 texture coords

o Piece3
g Piece3
usemtl Material__29
s 1
f 196/3/113 197/3/114 198/3/115 
f 197/3/114 196/3/113 199/3/116 
f 200/3/117 197/3/114 199/3/116 
f 197/3/114 200/3/117 201/3/118 
f 201/3/118 198/3/115 197/3/114 
f 198/3/115 201/3/118 202/3/119 
f 202/3/119 196/3/113 198/3/115 
f 196/3/113 202/3/119 203/3/120 
f 203/3/120 199/3/116 196/3/113 
f 199/3/116 203/3/120 200/3/117 
f 201/3/118 204/3/121 205/3/121 
f 204/3/121 201/3/118 200/3/117 
f 202/3/119 205/3/121 206/3/121 
f 205/3/121 202/3/119 201/3/118 
f 203/3/120 206/3/121 207/3/121 
f 206/3/121 203/3/120 202/3/119 
f 200/3/117 207/3/121 204/3/121 
f 207/3/121 200/3/117 203/3/120 
f 208/3/122 209/3/123 210/3/124 
f 209/3/123 208/3/122 211/3/125 
f 204/3/126 209/3/123 211/3/125 
f 209/3/126 204/3/126 205/3/126 
f 205/3/127 210/3/124 209/3/123 
f 210/3/127 205/3/127 206/3/127 
f 206/3/128 208/3/122 210/3/124 
f 208/3/128 206/3/128 207/3/128 
f 207/3/129 211/3/125 208/3/122 
f 211/3/129 207/3/129 204/3/129 
f 212/3/130 213/3/131 214/3/131 
f 213/3/131 212/3/130 215/3/130 
f 216/3/132 215/3/130 212/3/130 
f 215/3/130 216/3/132 217/3/132 
f 218/3/133 217/3/132 216/3/132 
f 217/3/132 218/3/133 219/3/133 
f 220/3/134 219/3/133 218/3/133 
f 219/3/133 220/3/134 221/3/134 
f 222/3/135 221/3/134 220/3/134 
f 221/3/134 222/3/135 223/3/135 
f 224/3/136 223/3/135 222/3/135 
f 223/3/135 224/3/136 225/3/136 
f 226/3/137 225/3/136 224/3/136 
f 225/3/136 226/3/137 227/3/137 
f 228/3/138 227/3/137 226/3/137 
f 227/3/137 228/3/138 229/3/138 
f 230/3/139 229/3/138 228/3/138 
f 229/3/138 230/3/139 231/3/139 
f 232/3/140 231/3/139 230/3/139 
f 231/3/139 232/3/140 233/3/140 
f 234/3/141 233/3/140 232/3/140 
f 233/3/140 234/3/141 235/3/141 
f 236/3/142 235/3/141 234/3/141 
f 235/3/141 236/3/142 237/3/142 
f 238/3/143 237/3/142 236/3/142 
f 237/3/142 238/3/143 239/3/143 
f 240/3/144 239/3/143 238/3/143 
f 239/3/143 240/3/144 241/3/144 
f 242/3/145 241/3/144 240/3/144 
f 241/3/144 242/3/145 243/3/145 
f 214/3/131 243/3/145 242/3/145 
f 243/3/145 214/3/131 213/3/131 
f 244/3/146 215/3/146 213/3/146 
f 244/3/146 217/3/146 215/3/146 
f 244/3/146 219/3/146 217/3/146 
f 244/3/146 221/3/146 219/3/146 
f 244/3/146 223/3/146 221/3/146 
f 244/3/146 225/3/146 223/3/146 
f 244/3/146 227/3/146 225/3/146 
f 244/3/146 229/3/146 227/3/146 
f 244/3/146 231/3/146 229/3/146 
f 244/3/146 233/3/146 231/3/146 
f 244/3/146 235/3/146 233/3/146 
f 244/3/146 237/3/146 235/3/146 
f 244/3/146 239/3/146 237/3/146 
f 244/3/146 241/3/146 239/3/146 
f 244/3/146 243/3/146 241/3/146 
f 244/3/146 213/3/146 243/3/146 
# 76 faces

